<svg xmlns="http://www.w3.org/2000/svg" width="24" height="24" preserveAspectRatio="xMinYMin"><rect id="backgroundrect" width="100%" height="100%" x="0" y="0" fill="none" stroke="none"/><g class="currentLayer" style=""><title>Layer 1</title><path d="M5.308 7.612l1.352-.923a.981.981 0 0 1 1.372.27 1.008 1.008 0 0 1-.266 1.388l-3.277 2.237a.981.981 0 0 1-1.372-.27L.907 6.998a1.007 1.007 0 0 1 .266-1.389.981.981 0 0 1 1.372.27l.839 1.259C4.6 3.01 8.38 0 12.855 0c5.458 0 9.882 4.477 9.882 10s-4.424 10-9.882 10a.994.994 0 0 1-.988-1c0-.552.443-1 .988-1 4.366 0 7.906-3.582 7.906-8s-3.54-8-7.906-8C9.311 2 6.312 4.36 5.308 7.612z" id="svg_1" class="selected" fill-opacity="1" fill="#ffaebc"/></g></svg>