<svg xmlns="http://www.w3.org/2000/svg" width="24" height="24" preserveAspectRatio="xMinYMin"><rect id="backgroundrect" width="100%" height="100%" x="0" y="0" fill="none" stroke="none"/><g class="currentLayer" style=""><title>Layer 1</title><path d="M13.421416096373449,2.561455329520841 a6.121750507374375,6.246308178550427 0 1 1 9.38831657810934,7.979034067280317 a11.028945714085673,11.25334881447645 0 0 0 -9.38831657810934,-7.977784805644606 zM1.6774499230264468,10.542987920072578 a6.121750507374375,6.246308178550427 0 1 1 9.38831657810934,-7.979034067280317 A11.028945714085673,11.25334881447645 0 0 0 1.6774499230264468,10.54173865843687 zM12.243591298754618,22.487178419096704 a8.570450710324124,8.744831449970599 0 1 1 0,-17.489662899941198 a8.570450710324124,8.744831449970599 0 0 1 0,17.489662899941198 zm1.2243501014748748,-9.994093085680683 V7.496038790575679 a1.2243501014748748,1.2492616357100854 0 0 0 -2.4487002029497495,0 v6.246308178550427 a1.2243501014748748,1.2492616357100854 0 0 0 1.2243501014748748,1.2492616357100854 h3.6730503044246254 a1.2243501014748748,1.2492616357100854 0 0 0 0,-2.498523271420171 h-2.4487002029497495 z" id="svg_1" class="selected" fill-opacity="1" fill="#fbe7c6"/></g></svg>