<svg xmlns="http://www.w3.org/2000/svg" width="24" height="24" preserveAspectRatio="xMinYMin"><rect id="backgroundrect" width="100%" height="100%" x="0" y="0" fill="none" stroke="none"/><g class="currentLayer" style=""><title>Layer 1</title><path d="M1.6868426446870455,0 h8.434055144898451 a1.6868110289796907,2.2820513248443604 0 1 1 0,4.564102649688721 H1.6868426446870455 a1.6868110289796907,2.2820513248443604 0 1 1 0,-4.564102649688721 zm11.807677202857832,18.256410598754883 h8.434055144898451 a1.6868110289796907,2.2820513248443604 0 0 1 0,4.564102649688721 H13.494519847544877 a1.6868110289796907,2.2820513248443604 0 1 1 0,-4.564102649688721 zM1.6868426446870455,9.128205299377441 h20.241732347756283 a1.6868110289796907,2.2820513248443604 0 0 1 0,4.564102649688721 H1.6868426446870455 a1.6868110289796907,2.2820513248443604 0 1 1 0,-4.564102649688721 z" id="svg_1" class="" fill-opacity="1" fill="#ffaebc"/></g></svg>