<svg xmlns="http://www.w3.org/2000/svg" width="24" height="24" preserveAspectRatio="xMinYMin"><rect id="backgroundrect" width="100%" height="100%" x="0" y="0" fill="none" stroke="none"/><g class="currentLayer" style=""><title>Layer 1</title><path d="M10 20C4.477 20 0 15.523 0 10S4.477 0 10 0s10 4.477 10 10-4.477 10-10 10zm0-2a8 8 0 1 0 0-16 8 8 0 0 0 0 16zm0-3a1 1 0 1 1 0-2 1 1 0 0 1 0 2zm1.276-3.218a1 1 0 0 1-1.232-1.576l.394-.308a1.5 1.5 0 1 0-1.847-2.364l-.394.308a1 1 0 1 1-1.23-1.576l.393-.308a3.5 3.5 0 1 1 4.31 5.516l-.394.308z" id="svg_1" class="selected" fill="#ffffff" fill-opacity="1"/></g></svg>