<svg xmlns="http://www.w3.org/2000/svg" width="24" height="24" preserveAspectRatio="xMinYMin"><rect id="backgroundrect" width="100%" height="100%" x="0" y="0" fill="none" stroke="none"/><g class="currentLayer" style=""><title>Layer 1</title><path d="M18 18V7.132l-8-4.8-8 4.8V18h4v-2.75a4 4 0 1 1 8 0V18h4zm-6 2v-4.75a2 2 0 1 0-4 0V20H2a2 2 0 0 1-2-2V7.132a2 2 0 0 1 .971-1.715l8-4.8a2 2 0 0 1 2.058 0l8 4.8A2 2 0 0 1 20 7.132V18a2 2 0 0 1-2 2h-6z" id="svg_1" class="selected" fill="#ffffff" fill-opacity="1"/></g></svg>